<?xml version="1.0" standalone="no"?>
<svg xmlns:xlink="http://www.w3.org/1999/xlink" id="wave" style="transform:rotate(180deg); transition: 0.3s" viewBox="0 0 1440 100" version="1.1" xmlns="http://www.w3.org/2000/svg"><defs><linearGradient id="sw-gradient-0" x1="0" x2="0" y1="1" y2="0"><stop stop-color="rgba(255, 249, 234, 1)" offset="0%"/><stop stop-color="rgba(255, 249, 234, 1)" offset="100%"/></linearGradient></defs><path style="transform:translate(0, 0px); opacity:1" fill="url(#sw-gradient-0)" d="M0,80L10,68.3C20,57,40,33,60,28.3C80,23,100,37,120,46.7C140,57,160,63,180,61.7C200,60,220,50,240,51.7C260,53,280,67,300,60C320,53,340,27,360,18.3C380,10,400,20,420,31.7C440,43,460,57,480,65C500,73,520,77,540,71.7C560,67,580,53,600,53.3C620,53,640,67,660,71.7C680,77,700,73,720,63.3C740,53,760,37,780,35C800,33,820,47,840,53.3C860,60,880,60,900,56.7C920,53,940,47,960,51.7C980,57,1000,73,1020,66.7C1040,60,1060,30,1080,25C1100,20,1120,40,1140,46.7C1160,53,1180,47,1200,38.3C1220,30,1240,20,1260,20C1280,20,1300,30,1320,36.7C1340,43,1360,47,1380,41.7C1400,37,1420,23,1430,16.7L1440,10L1440,100L1430,100C1420,100,1400,100,1380,100C1360,100,1340,100,1320,100C1300,100,1280,100,1260,100C1240,100,1220,100,1200,100C1180,100,1160,100,1140,100C1120,100,1100,100,1080,100C1060,100,1040,100,1020,100C1000,100,980,100,960,100C940,100,920,100,900,100C880,100,860,100,840,100C820,100,800,100,780,100C760,100,740,100,720,100C700,100,680,100,660,100C640,100,620,100,600,100C580,100,560,100,540,100C520,100,500,100,480,100C460,100,440,100,420,100C400,100,380,100,360,100C340,100,320,100,300,100C280,100,260,100,240,100C220,100,200,100,180,100C160,100,140,100,120,100C100,100,80,100,60,100C40,100,20,100,10,100L0,100Z"/></svg>